<svg xmlns="http://www.w3.org/2000/svg" width="1024" height="1024" viewBox="0 0 1024 1024" role="img" aria-label="Image2Tools icon">
  <defs>
    <linearGradient id="surface" x1="140" y1="84" x2="884" y2="940" gradientUnits="userSpaceOnUse">
      <stop offset="0" stop-color="#1f7a67"/>
      <stop offset="0.55" stop-color="#155f57"/>
      <stop offset="1" stop-color="#102f3f"/>
    </linearGradient>
    <linearGradient id="panel" x1="214" y1="206" x2="820" y2="786" gradientUnits="userSpaceOnUse">
      <stop offset="0" stop-color="#fffdf6"/>
      <stop offset="1" stop-color="#dcecff"/>
    </linearGradient>
    <linearGradient id="spark" x1="600" y1="232" x2="752" y2="430" gradientUnits="userSpaceOnUse">
      <stop offset="0" stop-color="#f8d978"/>
      <stop offset="1" stop-color="#f28b54"/>
    </linearGradient>
    <filter id="soft-shadow" x="-20%" y="-20%" width="140%" height="140%">
      <feDropShadow dx="0" dy="24" stdDeviation="34" flood-color="#071f27" flood-opacity="0.24"/>
    </filter>
  </defs>
  <rect width="1024" height="1024" rx="228" fill="url(#surface)"/>
  <g filter="url(#soft-shadow)">
    <rect x="206" y="224" width="540" height="420" rx="88" fill="url(#panel)"/>
    <path d="M260 562 398 401l98 108 70-88 126 141H260Z" fill="#194f49"/>
    <circle cx="342" cy="330" r="52" fill="#f1c86b"/>
  </g>
  <g fill="none" stroke-linecap="round" stroke-linejoin="round">
    <path d="M664 246 787 369" stroke="#fffdf6" stroke-width="56"/>
    <path d="M702 208 825 331" stroke="url(#spark)" stroke-width="56"/>
    <path d="M609 399 756 252" stroke="#f4efe4" stroke-width="52"/>
    <path d="M724 226 787 289" stroke="#153d48" stroke-width="20" opacity="0.22"/>
  </g>
  <g fill="#f8d978">
    <path d="M773 187 794 234 841 255 794 276 773 323 752 276 705 255 752 234Z"/>
    <path d="M617 174 630 203 659 216 630 229 617 258 604 229 575 216 604 203Z" opacity="0.86"/>
    <path d="M817 418 830 447 859 460 830 473 817 502 804 473 775 460 804 447Z" opacity="0.72"/>
  </g>
  <path d="M304 728H640" stroke="#fffdf6" stroke-width="54" stroke-linecap="round" opacity="0.95"/>
  <path d="M304 808H516" stroke="#f1c86b" stroke-width="54" stroke-linecap="round"/>
</svg>
